{
  "source": "C:\\Users\\Peter\\Desktop\\stuff\\MIUN\\quantitative_research\\video_compression\\videos\\BVI-HD\\BVI-HD_CDVL_videos\\ORIG\\Typing_1920x1080_60fps.mp4",
  "output": "C:\\Users\\Peter\\Desktop\\stuff\\MIUN\\quantitative_research\\video_compression\\compressed_videos\\BVI-HD\\vp9\\1\\Typing_1920x1080_60fps_vp9.webm",
  "codec": "vp9",
  "ok": "Input #0, mov,mp4,m4a,3gp,3g2,mj2, from 'C:\\Users\\Peter\\Desktop\\stuff\\MIUN\\quantitative_research\\video_compression\\videos\\BVI-HD\\BVI-HD_CDVL_videos\\ORIG\\Typing_1920x1080_60fps.mp4':\n  Metadata:\n    major_brand     : isom\n    minor_version   : 512\n    compatible_brands: isomiso2avc1mp41\n    encoder         : Lavf54.28.101\n  Duration: 00:00:05.00, start: 0.000000, bitrate: 203453 kb/s\n  Stream #0:0[0x1](und): Video: h264 (High 4:4:4 Predictive) (avc1 / 0x31637661), yuv420p(progressive), 1920x1080, 203448 kb/s, 60 fps, 60 tbr, 60 tbn (default)\n    Metadata:\n      handler_name    : VideoHandler\n      vendor_id       : [0][0][0][0]\n[out#0/webm @ 0000018e5a9d9880] Codec AVOption b:a (set bitrate (in bits/s)) has not been used for any stream. The most likely reason is either wrong type (e.g. a video option with no video streams) or that it is a private option of some decoder which was not actually used for any stream.\nStream mapping:\n  Stream #0:0 -> #0:0 (h264 (native) -> vp9 (libvpx-vp9))\nPress [q] to stop, [?] for help\n[libvpx-vp9 @ 0000018e5cb41b80] v1.15.2-100-g40561f514\nOutput #0, webm, to 'C:\\Users\\Peter\\Desktop\\stuff\\MIUN\\quantitative_research\\video_compression\\compressed_videos\\BVI-HD\\vp9\\1\\Typing_1920x1080_60fps_vp9.webm':\n  Metadata:\n    major_brand     : isom\n    minor_version   : 512\n    compatible_brands: isomiso2avc1mp41\n    encoder         : Lavf62.3.100\n  Stream #0:0(und): Video: vp9, yuv420p(tv, progressive), 1920x1080, q=2-31, 1000 kb/s, 60 fps, 1k tbn (default)\n    Metadata:\n      encoder         : Lavc62.11.100 libvpx-vp9\n      handler_name    : VideoHandler\n      vendor_id       : [0][0][0][0]\n    Side data:\n      cpb: bitrate max/min/avg: 0/0/0 buffer size: 1000000 vbv_delay: N/A\nframe=    0 fps=0.0 q=0.0 size=       0KiB time=N/A bitrate=N/A speed=N/A elapsed=0:00:00.50    \nframe=    2 fps=1.9 q=63.0 size=       1KiB time=00:00:00.03 bitrate= 151.9kbits/s speed=0.031x elapsed=0:00:01.07    \nframe=    8 fps=5.0 q=52.0 size=       1KiB time=00:00:00.13 bitrate=  38.0kbits/s speed=0.0833x elapsed=0:00:01.59    \nframe=   14 fps=6.5 q=51.0 size=       1KiB time=00:00:00.23 bitrate=  21.7kbits/s speed=0.109x elapsed=0:00:02.14    \nframe=   19 fps=7.1 q=52.0 size=       1KiB time=00:00:00.30 bitrate=  16.9kbits/s speed=0.112x elapsed=0:00:02.68    \nframe=   23 fps=7.1 q=50.0 size=       1KiB time=00:00:00.38 bitrate=  13.2kbits/s speed=0.118x elapsed=0:00:03.25    \nframe=   27 fps=7.0 q=51.0 size=       1KiB time=00:00:00.45 bitrate=  11.3kbits/s speed=0.117x elapsed=0:00:03.83    \nframe=   32 fps=7.2 q=50.0 size=       1KiB time=00:00:00.53 bitrate=   9.5kbits/s speed=0.121x elapsed=0:00:04.42    \nframe=   36 fps=7.2 q=48.0 size=       1KiB time=00:00:00.60 bitrate=   8.4kbits/s speed=0.12x elapsed=0:00:04.99    \nframe=   40 fps=7.2 q=51.0 size=       1KiB time=00:00:00.66 bitrate=   7.6kbits/s speed=0.119x elapsed=0:00:05.58    \nframe=   45 fps=7.3 q=49.0 size=       1KiB time=00:00:00.75 bitrate=   6.8kbits/s speed=0.122x elapsed=0:00:06.15    \nframe=   50 fps=7.5 q=48.0 size=       1KiB time=00:00:00.83 bitrate=   6.1kbits/s speed=0.125x elapsed=0:00:06.67    \nframe=   55 fps=7.6 q=48.0 size=       1KiB time=00:00:00.91 bitrate=   5.5kbits/s speed=0.127x elapsed=0:00:07.22    \nframe=   60 fps=7.7 q=48.0 size=       1KiB time=00:00:01.00 bitrate=   5.1kbits/s speed=0.129x elapsed=0:00:07.75    \nframe=   65 fps=7.8 q=47.0 size=       1KiB time=00:00:01.08 bitrate=   4.7kbits/s speed=0.13x elapsed=0:00:08.33    \nframe=   71 fps=8.0 q=50.0 size=       1KiB time=00:00:01.18 bitrate=   4.3kbits/s speed=0.133x elapsed=0:00:08.86    \nframe=   76 fps=8.0 q=49.0 size=       1KiB time=00:00:01.26 bitrate=   4.0kbits/s speed=0.134x elapsed=0:00:09.45    \nframe=   82 fps=8.2 q=49.0 size=       1KiB time=00:00:01.36 bitrate=   3.7kbits/s speed=0.136x elapsed=0:00:10.04    \nframe=   86 fps=8.1 q=51.0 size=       1KiB time=00:00:01.43 bitrate=   3.5kbits/s speed=0.135x elapsed=0:00:10.60    \nframe=   92 fps=8.2 q=52.0 size=       1KiB time=00:00:01.53 bitrate=   3.3kbits/s speed=0.137x elapsed=0:00:11.18    \nframe=   96 fps=8.2 q=49.0 size=       1KiB time=00:00:01.60 bitrate=   3.2kbits/s speed=0.136x elapsed=0:00:11.75    \nframe=  102 fps=8.3 q=51.0 size=       1KiB time=00:00:01.70 bitrate=   3.0kbits/s speed=0.138x elapsed=0:00:12.31    \nframe=  108 fps=8.4 q=49.0 size=       1KiB time=00:00:01.80 bitrate=   2.8kbits/s speed=0.14x elapsed=0:00:12.89    \nframe=  114 fps=8.4 q=53.0 size=       1KiB time=00:00:01.88 bitrate=   2.7kbits/s speed=0.14x elapsed=0:00:13.49    \nframe=  118 fps=8.4 q=51.0 size=       1KiB time=00:00:01.96 bitrate=   2.6kbits/s speed=0.14x elapsed=0:00:14.06    \nframe=  124 fps=8.5 q=51.0 size=       1KiB time=00:00:02.06 bitrate=   2.5kbits/s speed=0.142x elapsed=0:00:14.58    \nframe=  128 fps=8.5 q=53.0 size=       1KiB time=00:00:02.13 bitrate=   2.4kbits/s speed=0.141x elapsed=0:00:15.11    \nframe=  136 fps=8.7 q=51.0 size=     235KiB time=00:00:02.25 bitrate= 855.1kbits/s speed=0.144x elapsed=0:00:15.65    \nframe=  141 fps=8.7 q=51.0 size=     235KiB time=00:00:02.35 bitrate= 818.7kbits/s speed=0.145x elapsed=0:00:16.22    \nframe=  146 fps=8.7 q=46.0 size=     235KiB time=00:00:02.43 bitrate= 790.6kbits/s speed=0.145x elapsed=0:00:16.79    \nframe=  151 fps=8.7 q=48.0 size=     235KiB time=00:00:02.51 bitrate= 764.5kbits/s speed=0.145x elapsed=0:00:17.38    \nframe=  155 fps=8.7 q=46.0 size=     235KiB time=00:00:02.58 bitrate= 744.7kbits/s speed=0.144x elapsed=0:00:17.90    \nframe=  161 fps=8.7 q=43.0 size=     235KiB time=00:00:02.68 bitrate= 717.0kbits/s speed=0.145x elapsed=0:00:18.44    \nframe=  165 fps=8.7 q=40.0 size=     235KiB time=00:00:02.75 bitrate= 699.6kbits/s speed=0.145x elapsed=0:00:19.00    \nframe=  170 fps=8.7 q=40.0 size=     235KiB time=00:00:02.83 bitrate= 679.0kbits/s speed=0.145x elapsed=0:00:19.57    \nframe=  175 fps=8.7 q=41.0 size=     235KiB time=00:00:02.91 bitrate= 659.6kbits/s speed=0.145x elapsed=0:00:20.12    \nframe=  180 fps=8.7 q=39.0 size=     235KiB time=00:00:03.00 bitrate= 641.3kbits/s speed=0.145x elapsed=0:00:20.70    \nframe=  186 fps=8.8 q=46.0 size=     235KiB time=00:00:03.10 bitrate= 620.6kbits/s speed=0.146x elapsed=0:00:21.24    \nframe=  190 fps=8.7 q=47.0 size=     235KiB time=00:00:03.16 bitrate= 607.5kbits/s speed=0.145x elapsed=0:00:21.80    \nframe=  196 fps=8.8 q=47.0 size=     235KiB time=00:00:03.26 bitrate= 588.9kbits/s speed=0.146x elapsed=0:00:22.35    \nframe=  202 fps=8.8 q=47.0 size=     235KiB time=00:00:03.36 bitrate= 571.5kbits/s speed=0.147x elapsed=0:00:22.90    \nframe=  209 fps=8.9 q=50.0 size=     235KiB time=00:00:03.48 bitrate= 552.3kbits/s speed=0.149x elapsed=0:00:23.43    \nframe=  215 fps=9.0 q=50.0 size=     235KiB time=00:00:03.58 bitrate= 536.9kbits/s speed=0.15x elapsed=0:00:23.96    \nframe=  219 fps=8.9 q=48.0 size=     235KiB time=00:00:03.65 bitrate= 527.1kbits/s speed=0.149x elapsed=0:00:24.50    \nframe=  223 fps=8.9 q=50.0 size=     235KiB time=00:00:03.71 bitrate= 517.6kbits/s speed=0.148x elapsed=0:00:25.09    \nframe=  227 fps=8.9 q=49.0 size=     235KiB time=00:00:03.78 bitrate= 508.5kbits/s speed=0.148x elapsed=0:00:25.63    \nframe=  233 fps=8.9 q=49.0 size=     235KiB time=00:00:03.88 bitrate= 495.4kbits/s speed=0.148x elapsed=0:00:26.17    \nframe=  238 fps=8.9 q=51.0 size=     235KiB time=00:00:03.96 bitrate= 485.0kbits/s speed=0.148x elapsed=0:00:26.71    \nframe=  244 fps=9.0 q=48.0 size=     235KiB time=00:00:04.06 bitrate= 473.1kbits/s speed=0.149x elapsed=0:00:27.24    \nframe=  249 fps=9.0 q=48.0 size=     235KiB time=00:00:04.15 bitrate= 463.6kbits/s speed=0.149x elapsed=0:00:27.76    \nframe=  254 fps=9.0 q=50.0 size=     235KiB time=00:00:04.23 bitrate= 454.5kbits/s speed=0.15x elapsed=0:00:28.29    \nframe=  260 fps=9.0 q=50.0 size=     256KiB time=00:00:04.33 bitrate= 484.0kbits/s speed=0.15x elapsed=0:00:28.82    \nframe=  267 fps=9.1 q=48.0 size=     256KiB time=00:00:04.45 bitrate= 471.3kbits/s speed=0.151x elapsed=0:00:29.37    \nframe=  272 fps=9.1 q=49.0 size=     256KiB time=00:00:04.53 bitrate= 462.6kbits/s speed=0.151x elapsed=0:00:29.93    \nframe=  276 fps=9.1 q=50.0 size=     256KiB time=00:00:04.60 bitrate= 455.9kbits/s speed=0.151x elapsed=0:00:30.47    \nframe=  276 fps=8.9 q=50.0 size=     256KiB time=00:00:04.60 bitrate= 455.9kbits/s speed=0.148x elapsed=0:00:30.99    \nframe=  276 fps=8.8 q=50.0 size=     256KiB time=00:00:04.60 bitrate= 455.9kbits/s speed=0.146x elapsed=0:00:31.52    \nframe=  276 fps=8.6 q=50.0 size=     256KiB time=00:00:04.60 bitrate= 455.9kbits/s speed=0.144x elapsed=0:00:32.05    \nframe=  276 fps=8.5 q=50.0 size=     256KiB time=00:00:04.60 bitrate= 455.9kbits/s speed=0.141x elapsed=0:00:32.60    \n[out#0/webm @ 0000018e5a9d9880] video:620KiB audio:0KiB subtitle:0KiB other streams:0KiB global headers:0KiB muxing overhead: 0.445566%\nframe=  300 fps=9.1 q=49.0 Lsize=     623KiB time=00:00:05.00 bitrate=1020.4kbits/s speed=0.152x elapsed=0:00:32.99    \n",
  "seconds": 33.305747747421265,
  "probe_out": {}
}